<?xml version="1.0" encoding="UTF-8"?>
<!DOCTYPE svg PUBLIC "-//W3C//DTD SVG 1.1//EN" "http://www.w3.org/Graphics/SVG/1.1/DTD/svg11.dtd">
<svg version="1.2" width="148mm" height="105mm" viewBox="0 0 14800 10500" preserveAspectRatio="xMidYMid" fill-rule="evenodd" stroke-width="28.222" stroke-linejoin="round" xmlns="http://www.w3.org/2000/svg" xmlns:ooo="http://xml.openoffice.org/svg/export" xmlns:xlink="http://www.w3.org/1999/xlink" xmlns:presentation="http://sun.com/xmlns/staroffice/presentation" xmlns:smil="http://www.w3.org/2001/SMIL20/" xmlns:anim="urn:oasis:names:tc:opendocument:xmlns:animation:1.0" xml:space="preserve">
 <defs class="ClipPathGroup">
  <clipPath id="presentation_clip_path" clipPathUnits="userSpaceOnUse">
   <rect x="0" y="0" width="14800" height="10500"/>
  </clipPath>
  <clipPath id="presentation_clip_path_shrink" clipPathUnits="userSpaceOnUse">
   <rect x="14" y="10" width="14771" height="10479"/>
  </clipPath>
 </defs>
 <defs class="TextShapeIndex">
  <g ooo:slide="id1" ooo:id-list="id3 id4 id5"/>
 </defs>
 <defs class="EmbeddedBulletChars">
  <g id="bullet-char-template-57356" transform="scale(0.00048828125,-0.00048828125)">
   <path d="M 580,1141 L 1163,571 580,0 -4,571 580,1141 Z"/>
  </g>
  <g id="bullet-char-template-57354" transform="scale(0.00048828125,-0.00048828125)">
   <path d="M 8,1128 L 1137,1128 1137,0 8,0 8,1128 Z"/>
  </g>
  <g id="bullet-char-template-10146" transform="scale(0.00048828125,-0.00048828125)">
   <path d="M 174,0 L 602,739 174,1481 1456,739 174,0 Z M 1358,739 L 309,1346 659,739 1358,739 Z"/>
  </g>
  <g id="bullet-char-template-10132" transform="scale(0.00048828125,-0.00048828125)">
   <path d="M 2015,739 L 1276,0 717,0 1260,543 174,543 174,936 1260,936 717,1481 1274,1481 2015,739 Z"/>
  </g>
  <g id="bullet-char-template-10007" transform="scale(0.00048828125,-0.00048828125)">
   <path d="M 0,-2 C -7,14 -16,27 -25,37 L 356,567 C 262,823 215,952 215,954 215,979 228,992 255,992 264,992 276,990 289,987 310,991 331,999 354,1012 L 381,999 492,748 772,1049 836,1024 860,1049 C 881,1039 901,1025 922,1006 886,937 835,863 770,784 769,783 710,716 594,584 L 774,223 C 774,196 753,168 711,139 L 727,119 C 717,90 699,76 672,76 641,76 570,178 457,381 L 164,-76 C 142,-110 111,-127 72,-127 30,-127 9,-110 8,-76 1,-67 -2,-52 -2,-32 -2,-23 -1,-13 0,-2 Z"/>
  </g>
  <g id="bullet-char-template-10004" transform="scale(0.00048828125,-0.00048828125)">
   <path d="M 285,-33 C 182,-33 111,30 74,156 52,228 41,333 41,471 41,549 55,616 82,672 116,743 169,778 240,778 293,778 328,747 346,684 L 369,508 C 377,444 397,411 428,410 L 1163,1116 C 1174,1127 1196,1133 1229,1133 1271,1133 1292,1118 1292,1087 L 1292,965 C 1292,929 1282,901 1262,881 L 442,47 C 390,-6 338,-33 285,-33 Z"/>
  </g>
  <g id="bullet-char-template-9679" transform="scale(0.00048828125,-0.00048828125)">
   <path d="M 813,0 C 632,0 489,54 383,161 276,268 223,411 223,592 223,773 276,916 383,1023 489,1130 632,1184 813,1184 992,1184 1136,1130 1245,1023 1353,916 1407,772 1407,592 1407,412 1353,268 1245,161 1136,54 992,0 813,0 Z"/>
  </g>
  <g id="bullet-char-template-8226" transform="scale(0.00048828125,-0.00048828125)">
   <path d="M 346,457 C 273,457 209,483 155,535 101,586 74,649 74,723 74,796 101,859 155,911 209,963 273,989 346,989 419,989 480,963 531,910 582,859 608,796 608,723 608,648 583,586 532,535 482,483 420,457 346,457 Z"/>
  </g>
  <g id="bullet-char-template-8211" transform="scale(0.00048828125,-0.00048828125)">
   <path d="M -4,459 L 1135,459 1135,606 -4,606 -4,459 Z"/>
  </g>
  <g id="bullet-char-template-61548" transform="scale(0.00048828125,-0.00048828125)">
   <path d="M 173,740 C 173,903 231,1043 346,1159 462,1274 601,1332 765,1332 928,1332 1067,1274 1183,1159 1299,1043 1357,903 1357,740 1357,577 1299,437 1183,322 1067,206 928,148 765,148 601,148 462,206 346,322 231,437 173,577 173,740 Z"/>
  </g>
 </defs>
 <g>
  <g id="id2" class="Master_Slide">
   <g id="bg-id2" class="Background"/>
   <g id="bo-id2" class="BackgroundObjects"/>
  </g>
 </g>
 <g class="SlideGroup">
  <g>
   <g id="container-id1">
    <g id="id1" class="Slide" clip-path="url(#presentation_clip_path)">
     <g class="Page">
      <g class="Graphic">
       <title>Asset 2
       </title>
       <g id="id3">
        <rect class="BoundingBox" stroke="none" fill="none" x="8400" y="4500" width="4052" height="2610"/>
        <defs>
         <clipPath id="clip_path_1" clipPathUnits="userSpaceOnUse">
          <path d="M 8400,4500 L 12451,4500 12451,7109 8400,7109 8400,4500 Z"/>
         </clipPath>
        </defs>
        <g clip-path="url(#clip_path_1)">
         <path fill="rgb(26,26,26)" stroke="none" d="M 10864,6641 L 10520,6641 10520,5059 10864,4964 10864,6641 Z"/>
         <path fill="rgb(77,100,174)" stroke="none" d="M 8986,5461 L 8986,5461 C 8945,5461 8905,5450 8869,5429 8833,5409 8803,5379 8783,5343 8762,5307 8751,5267 8751,5226 8751,5184 8762,5144 8783,5108 8803,5072 8833,5042 8869,5022 8905,5001 8945,4990 8986,4990 9028,4990 9068,5001 9104,5022 9140,5042 9170,5072 9190,5108 9211,5144 9222,5184 9222,5226 L 9222,5226 9222,5226 C 9222,5267 9211,5307 9190,5343 9170,5379 9140,5409 9104,5429 9068,5450 9028,5461 8986,5461 L 8986,5461 Z"/>
         <path fill="rgb(26,26,26)" stroke="none" d="M 9171,6638 L 9171,6638 C 9171,6646 9171,6654 9171,6662 9171,6736 9159,6810 9136,6880 L 9136,6880 C 9129,6901 9120,6921 9109,6940 9091,6972 9068,7000 9040,7023 L 9040,7023 C 9027,7035 9012,7045 8997,7053 8964,7072 8928,7085 8891,7092 L 8891,7092 C 8830,7104 8769,7110 8707,7110 8704,7110 8701,7110 8698,7110 L 8698,7110 C 8696,7110 8693,7110 8691,7110 8651,7110 8610,7106 8570,7097 L 8570,7097 C 8538,7091 8506,7079 8477,7064 L 8477,7064 C 8475,7063 8472,7061 8470,7060 8450,7049 8433,7033 8420,7015 L 8420,7015 C 8417,7011 8415,7008 8413,7004 8405,6989 8400,6973 8400,6957 L 8400,6957 C 8400,6956 8400,6956 8400,6955 8400,6935 8405,6916 8415,6899 8422,6887 8431,6876 8442,6867 L 8442,6867 C 8448,6862 8455,6858 8461,6854 8487,6839 8517,6831 8547,6831 8550,6831 8553,6831 8557,6832 L 8557,6832 C 8558,6832 8558,6832 8559,6832 8575,6832 8591,6834 8606,6840 L 8606,6840 C 8614,6843 8621,6847 8628,6851 8634,6854 8639,6857 8644,6861 L 8644,6861 C 8655,6870 8665,6879 8675,6889 8683,6900 8690,6910 8697,6919 L 8697,6919 C 8708,6934 8721,6948 8736,6960 L 8736,6960 C 8738,6961 8739,6962 8741,6962 8749,6967 8758,6970 8767,6970 L 8767,6970 C 8767,6970 8767,6970 8767,6970 8776,6970 8784,6968 8792,6964 8792,6964 8793,6963 8793,6963 L 8793,6963 C 8799,6959 8804,6953 8808,6947 8809,6944 8811,6940 8812,6937 L 8812,6937 C 8818,6920 8822,6903 8823,6886 L 8823,6886 C 8826,6862 8827,6838 8827,6814 8827,6811 8827,6808 8827,6805 L 8827,5571 9171,5476 9171,6638 Z"/>
         <path fill="rgb(26,26,26)" stroke="none" d="M 9673,5504 L 9673,6299 9673,6299 C 9673,6299 9673,6299 9673,6299 9673,6321 9678,6342 9686,6362 L 9686,6362 C 9687,6365 9689,6368 9691,6371 9699,6386 9710,6399 9723,6411 L 9723,6411 C 9732,6420 9743,6427 9754,6434 9761,6438 9768,6441 9776,6444 L 9776,6444 C 9795,6453 9817,6457 9838,6457 9839,6457 9839,6457 9839,6457 L 9839,6457 C 9854,6456 9868,6453 9882,6446 L 9882,6446 C 9888,6444 9894,6440 9900,6437 9910,6431 9920,6424 9929,6417 L 9929,6417 C 9947,6404 9963,6389 9977,6373 L 9977,6373 C 9993,6356 10007,6337 10020,6317 L 10020,5504 10364,5504 10364,6641 10020,6641 10020,6535 10020,6535 C 9990,6561 9958,6584 9925,6603 9909,6612 9893,6621 9876,6628 L 9876,6628 C 9830,6650 9779,6662 9728,6662 L 9728,6662 C 9726,6662 9724,6662 9722,6662 9671,6662 9620,6653 9572,6636 L 9572,6636 C 9552,6628 9532,6619 9514,6608 9490,6594 9467,6578 9446,6559 L 9446,6559 C 9419,6534 9395,6505 9376,6473 9371,6464 9367,6455 9362,6446 L 9362,6446 C 9342,6403 9332,6356 9332,6308 9332,6308 9332,6307 9332,6306 L 9332,5504 9673,5504 Z"/>
         <path fill="rgb(202,60,50)" stroke="none" d="M 11198,5461 L 11198,5461 C 11157,5461 11117,5450 11081,5429 11045,5409 11015,5379 10995,5343 10974,5307 10963,5267 10963,5226 10963,5184 10974,5144 10995,5108 11015,5072 11045,5042 11081,5022 11117,5001 11157,4990 11199,4990 11240,4990 11281,5001 11316,5022 11352,5042 11382,5072 11403,5108 11423,5144 11434,5184 11434,5226 L 11434,5226 C 11434,5267 11423,5307 11403,5343 11382,5379 11352,5409 11316,5429 11280,5450 11240,5461 11198,5461 11198,5461 11198,5461 11198,5461 L 11198,5461 Z"/>
         <path fill="rgb(146,89,163)" stroke="none" d="M 11764,5461 L 11764,5461 C 11723,5461 11683,5450 11647,5429 11611,5409 11581,5379 11561,5343 11540,5307 11529,5267 11529,5226 11529,5184 11540,5144 11561,5108 11581,5072 11611,5042 11647,5022 11683,5001 11723,4990 11765,4990 11806,4990 11846,5001 11882,5022 11918,5042 11948,5072 11968,5108 11989,5144 12000,5184 12000,5226 L 12000,5226 C 12000,5267 11989,5307 11968,5343 11948,5379 11918,5409 11882,5429 11846,5450 11806,5461 11764,5461 11764,5461 11764,5461 11764,5461 L 11764,5461 Z"/>
         <path fill="rgb(57,151,70)" stroke="none" d="M 11482,4971 L 11482,4971 C 11440,4971 11400,4960 11364,4939 11328,4919 11298,4889 11278,4853 11257,4817 11246,4777 11246,4735 11246,4694 11257,4653 11278,4618 11298,4582 11328,4552 11364,4532 11400,4511 11440,4500 11482,4500 11523,4500 11563,4511 11599,4532 11635,4552 11665,4582 11685,4618 11706,4653 11717,4694 11717,4735 L 11717,4735 11717,4735 C 11717,4735 11717,4736 11717,4736 11717,4777 11706,4817 11685,4853 11665,4889 11635,4919 11599,4939 11564,4960 11523,4971 11482,4971 11482,4971 11482,4971 11482,4971 L 11482,4971 Z"/>
         <path fill="rgb(26,26,26)" stroke="none" d="M 11049,5574 L 11393,5479 11393,6641 11049,6641 11049,5574 Z"/>
         <path fill="rgb(26,26,26)" stroke="none" d="M 12107,6054 L 12107,6054 C 12073,6069 12040,6086 12007,6104 L 12007,6104 C 12002,6107 11997,6110 11991,6113 11965,6128 11940,6146 11916,6165 L 11916,6165 C 11890,6185 11867,6209 11848,6235 L 11848,6235 C 11845,6239 11843,6244 11840,6248 11829,6268 11822,6290 11822,6313 L 11822,6313 C 11822,6313 11822,6314 11822,6314 11822,6334 11825,6355 11830,6375 L 11830,6375 C 11835,6390 11841,6404 11848,6417 11850,6420 11852,6423 11853,6426 L 11853,6426 C 11862,6439 11873,6450 11886,6459 L 11886,6459 C 11888,6460 11889,6461 11891,6462 11902,6468 11914,6472 11926,6472 L 11926,6472 C 11953,6471 11980,6463 12003,6450 12005,6448 12008,6447 12010,6445 L 12010,6445 C 12043,6425 12075,6404 12106,6380 L 12107,6054 Z M 12451,6641 L 12107,6641 12107,6550 C 12088,6567 12070,6581 12051,6595 L 12051,6595 C 12041,6602 12030,6609 12019,6615 12010,6621 12000,6626 11990,6630 L 11990,6630 C 11967,6641 11941,6649 11916,6654 L 11916,6654 C 11885,6659 11854,6662 11823,6662 11821,6662 11818,6662 11816,6662 L 11816,6662 C 11814,6662 11812,6662 11810,6662 11764,6662 11718,6654 11675,6640 L 11675,6640 C 11656,6633 11637,6625 11619,6614 11601,6604 11585,6592 11569,6579 L 11569,6579 C 11549,6560 11531,6538 11517,6514 11512,6505 11507,6495 11503,6485 L 11503,6485 C 11487,6449 11480,6411 11480,6372 11480,6371 11480,6370 11480,6370 L 11480,6370 C 11480,6368 11480,6366 11480,6365 11480,6326 11488,6288 11504,6253 L 11504,6253 C 11507,6245 11511,6238 11515,6231 11531,6204 11549,6180 11571,6158 L 11571,6158 C 11601,6129 11635,6104 11671,6083 L 11671,6083 C 11672,6082 11672,6082 11673,6082 11712,6059 11752,6039 11794,6022 11838,6003 11884,5987 11931,5971 L 12070,5926 12107,5918 12107,5805 12107,5805 C 12107,5803 12107,5801 12107,5799 12107,5770 12104,5741 12096,5714 L 12096,5714 C 12092,5700 12087,5686 12079,5673 12075,5666 12071,5659 12065,5653 L 12065,5653 C 12057,5642 12046,5633 12035,5626 12029,5623 12024,5620 12018,5618 L 12018,5618 C 11999,5611 11979,5607 11958,5607 11957,5607 11957,5607 11956,5607 L 11956,5607 C 11954,5607 11953,5607 11951,5607 11929,5607 11908,5611 11888,5618 L 11888,5618 C 11881,5620 11876,5623 11870,5626 11860,5632 11851,5639 11843,5647 L 11843,5647 C 11838,5653 11833,5660 11829,5667 11825,5674 11822,5681 11819,5689 L 11819,5689 C 11814,5706 11812,5723 11812,5740 11812,5740 11812,5741 11812,5742 L 11812,5742 C 11812,5743 11812,5743 11812,5744 11812,5764 11809,5785 11804,5805 L 11804,5805 C 11802,5818 11797,5831 11790,5843 11787,5848 11784,5853 11780,5857 L 11780,5857 C 11772,5868 11761,5877 11749,5884 11744,5886 11739,5889 11733,5891 L 11733,5891 C 11711,5900 11687,5905 11664,5905 11661,5905 11659,5905 11656,5905 L 11656,5905 C 11656,5905 11655,5905 11654,5905 11632,5905 11611,5901 11590,5894 L 11590,5894 C 11582,5891 11574,5887 11566,5883 11556,5878 11548,5871 11539,5864 L 11539,5864 C 11528,5854 11519,5842 11512,5829 11509,5825 11508,5821 11506,5818 L 11506,5818 C 11498,5800 11494,5780 11494,5760 11494,5760 11494,5760 11494,5760 L 11494,5760 C 11494,5731 11502,5702 11517,5676 11522,5667 11528,5659 11534,5652 L 11534,5652 C 11561,5619 11593,5592 11629,5571 11633,5569 11637,5567 11642,5564 L 11642,5564 C 11691,5539 11744,5519 11798,5508 L 11798,5508 C 11859,5494 11921,5487 11983,5487 11984,5487 11985,5487 11986,5487 L 11986,5487 C 11991,5486 11996,5486 12001,5486 12066,5486 12131,5494 12195,5509 L 12195,5509 C 12238,5518 12279,5534 12317,5556 12325,5561 12332,5566 12340,5571 L 12340,5571 C 12371,5592 12397,5620 12416,5653 12419,5658 12422,5663 12424,5667 L 12424,5667 C 12441,5705 12451,5747 12451,5788 12451,5790 12451,5793 12450,5795 L 12451,6641 Z"/>
        </g>
       </g>
      </g>
      <g class="Graphic">
       <g id="id4">
        <rect class="BoundingBox" stroke="none" fill="none" x="2241" y="4300" width="3660" height="2907"/>
        <defs>
         <clipPath id="clip_path_2" clipPathUnits="userSpaceOnUse">
          <path d="M 4068,6815 C 3063,6815 2248,6256 2248,5567 2248,4877 3063,4318 4068,4318 5073,4318 5887,4877 5887,5567 5887,6256 5073,6815 4068,6815 L 4068,6815 Z M 4346,4806 C 3582,4806 2963,5188 2963,5660 2963,6131 3582,6513 4346,6513 5110,6513 5674,6252 5674,5660 5674,5068 5110,4806 4346,4806 L 4346,4806 Z"/>
         </clipPath>
        </defs>
        <g clip-path="url(#clip_path_2)">
         <path fill="rgb(203,206,208)" stroke="none" d="M 3526,3429 L 3573,3461 999,5227 953,5195 3526,3429 Z"/>
         <path fill="rgb(202,205,207)" stroke="none" d="M 3556,3449 L 3602,3481 1028,5247 982,5215 3556,3449 Z"/>
         <path fill="rgb(202,205,207)" stroke="none" d="M 3585,3469 L 3632,3501 1058,5267 1011,5236 3585,3469 Z"/>
         <path fill="rgb(201,204,206)" stroke="none" d="M 3615,3490 L 3661,3521 1087,5288 1041,5256 3615,3490 Z"/>
         <path fill="rgb(201,204,206)" stroke="none" d="M 3644,3510 L 3690,3542 1116,5308 1070,5276 3644,3510 Z"/>
         <path fill="rgb(200,203,205)" stroke="none" d="M 3673,3530 L 3720,3562 1146,5328 1099,5296 3673,3530 Z"/>
         <path fill="rgb(200,202,205)" stroke="none" d="M 3703,3550 L 3749,3582 1175,5348 1129,5316 3703,3550 Z"/>
         <path fill="rgb(199,202,204)" stroke="none" d="M 3732,3570 L 3778,3602 1205,5368 1158,5336 3732,3570 Z"/>
         <path fill="rgb(198,201,204)" stroke="none" d="M 3761,3590 L 3808,3622 1234,5388 1187,5356 3761,3590 Z"/>
         <path fill="rgb(198,201,203)" stroke="none" d="M 3791,3610 L 3837,3642 1263,5408 1217,5377 3791,3610 Z"/>
         <path fill="rgb(197,200,202)" stroke="none" d="M 3820,3631 L 3866,3662 1293,5429 1246,5397 3820,3631 Z"/>
         <path fill="rgb(197,199,202)" stroke="none" d="M 3849,3651 L 3896,3683 1322,5449 1275,5417 3849,3651 Z"/>
         <path fill="rgb(196,199,201)" stroke="none" d="M 3879,3671 L 3925,3703 1351,5469 1305,5437 3879,3671 Z"/>
         <path fill="rgb(196,198,201)" stroke="none" d="M 3908,3691 L 3954,3723 1381,5489 1334,5457 3908,3691 Z"/>
         <path fill="rgb(195,198,200)" stroke="none" d="M 3937,3711 L 3984,3743 1410,5509 1363,5477 3937,3711 Z"/>
         <path fill="rgb(194,197,200)" stroke="none" d="M 3967,3731 L 4013,3763 1439,5529 1393,5497 3967,3731 Z"/>
         <path fill="rgb(194,196,199)" stroke="none" d="M 3996,3751 L 4043,3783 1469,5549 1422,5518 3996,3751 Z"/>
         <path fill="rgb(193,196,199)" stroke="none" d="M 4025,3772 L 4072,3803 1498,5570 1452,5538 4025,3772 Z"/>
         <path fill="rgb(193,195,198)" stroke="none" d="M 4055,3792 L 4101,3824 1527,5590 1481,5558 4055,3792 Z"/>
         <path fill="rgb(192,195,197)" stroke="none" d="M 4084,3812 L 4131,3844 1557,5610 1510,5578 4084,3812 Z"/>
         <path fill="rgb(192,194,197)" stroke="none" d="M 4113,3832 L 4160,3864 1586,5630 1540,5598 4113,3832 Z"/>
         <path fill="rgb(191,193,196)" stroke="none" d="M 4143,3852 L 4189,3884 1615,5650 1569,5618 4143,3852 Z"/>
         <path fill="rgb(190,193,196)" stroke="none" d="M 4172,3872 L 4219,3904 1645,5670 1598,5638 4172,3872 Z"/>
         <path fill="rgb(190,192,195)" stroke="none" d="M 4202,3892 L 4248,3924 1674,5690 1628,5658 4202,3892 Z"/>
         <path fill="rgb(189,191,195)" stroke="none" d="M 4231,3912 L 4277,3944 1703,5710 1657,5679 4231,3912 Z"/>
         <path fill="rgb(189,191,194)" stroke="none" d="M 4260,3933 L 4307,3965 1733,5731 1686,5699 4260,3933 Z"/>
         <path fill="rgb(188,190,194)" stroke="none" d="M 4290,3953 L 4336,3985 1762,5751 1716,5719 4290,3953 Z"/>
         <path fill="rgb(188,190,193)" stroke="none" d="M 4319,3973 L 4365,4005 1791,5771 1745,5739 4319,3973 Z"/>
         <path fill="rgb(187,189,192)" stroke="none" d="M 4348,3993 L 4395,4025 1821,5791 1774,5759 4348,3993 Z"/>
         <path fill="rgb(186,188,192)" stroke="none" d="M 4378,4013 L 4424,4045 1850,5811 1804,5779 4378,4013 Z"/>
         <path fill="rgb(186,188,191)" stroke="none" d="M 4407,4033 L 4453,4065 1880,5831 1833,5799 4407,4033 Z"/>
         <path fill="rgb(185,187,191)" stroke="none" d="M 4436,4053 L 4483,4085 1909,5851 1862,5820 4436,4053 Z"/>
         <path fill="rgb(185,187,190)" stroke="none" d="M 4466,4074 L 4512,4105 1938,5872 1892,5840 4466,4074 Z"/>
         <path fill="rgb(184,186,190)" stroke="none" d="M 4495,4094 L 4541,4126 1968,5892 1921,5860 4495,4094 Z"/>
         <path fill="rgb(184,185,189)" stroke="none" d="M 4524,4114 L 4571,4146 1997,5912 1950,5880 4524,4114 Z"/>
         <path fill="rgb(183,185,189)" stroke="none" d="M 4554,4134 L 4600,4166 2026,5932 1980,5900 4554,4134 Z"/>
         <path fill="rgb(182,184,188)" stroke="none" d="M 4583,4154 L 4630,4186 2056,5952 2009,5920 4583,4154 Z"/>
         <path fill="rgb(182,184,187)" stroke="none" d="M 4612,4174 L 4659,4206 2085,5972 2039,5940 4612,4174 Z"/>
         <path fill="rgb(181,183,187)" stroke="none" d="M 4642,4194 L 4688,4226 2114,5992 2068,5961 4642,4194 Z"/>
         <path fill="rgb(181,182,186)" stroke="none" d="M 4671,4215 L 4718,4246 2144,6013 2097,5981 4671,4215 Z"/>
         <path fill="rgb(180,182,186)" stroke="none" d="M 4700,4235 L 4747,4267 2173,6033 2127,6001 4700,4235 Z"/>
         <path fill="rgb(180,181,185)" stroke="none" d="M 4730,4255 L 4776,4287 2202,6053 2156,6021 4730,4255 Z"/>
         <path fill="rgb(179,181,185)" stroke="none" d="M 4759,4275 L 4806,4307 2232,6073 2185,6041 4759,4275 Z"/>
         <path fill="rgb(178,180,184)" stroke="none" d="M 4788,4295 L 4835,4327 2261,6093 2215,6061 4788,4295 Z"/>
         <path fill="rgb(178,179,184)" stroke="none" d="M 4818,4315 L 4864,4347 2290,6113 2244,6081 4818,4315 Z"/>
         <path fill="rgb(177,179,183)" stroke="none" d="M 4847,4335 L 4894,4367 2320,6133 2273,6102 4847,4335 Z"/>
         <path fill="rgb(177,178,182)" stroke="none" d="M 4877,4356 L 4923,4387 2349,6154 2303,6122 4877,4356 Z"/>
         <path fill="rgb(176,178,182)" stroke="none" d="M 4906,4376 L 4952,4408 2378,6174 2332,6142 4906,4376 Z"/>
         <path fill="rgb(176,177,181)" stroke="none" d="M 4935,4396 L 4982,4428 2408,6194 2361,6162 4935,4396 Z"/>
         <path fill="rgb(175,176,181)" stroke="none" d="M 4965,4416 L 5011,4448 2437,6214 2391,6182 4965,4416 Z"/>
         <path fill="rgb(174,176,180)" stroke="none" d="M 4994,4436 L 5040,4468 2467,6234 2420,6202 4994,4436 Z"/>
         <path fill="rgb(174,175,180)" stroke="none" d="M 5023,4456 L 5070,4488 2496,6254 2449,6222 5023,4456 Z"/>
         <path fill="rgb(173,175,179)" stroke="none" d="M 5053,4476 L 5099,4508 2525,6274 2479,6242 5053,4476 Z"/>
         <path fill="rgb(173,174,179)" stroke="none" d="M 5082,4497 L 5128,4528 2555,6295 2508,6263 5082,4497 Z"/>
         <path fill="rgb(172,173,178)" stroke="none" d="M 5111,4517 L 5158,4549 2584,6315 2537,6283 5111,4517 Z"/>
         <path fill="rgb(172,173,177)" stroke="none" d="M 5141,4537 L 5187,4569 2613,6335 2567,6303 5141,4537 Z"/>
         <path fill="rgb(171,172,177)" stroke="none" d="M 5170,4557 L 5216,4589 2643,6355 2596,6323 5170,4557 Z"/>
         <path fill="rgb(170,172,176)" stroke="none" d="M 5199,4577 L 5246,4609 2672,6375 2625,6343 5199,4577 Z"/>
         <path fill="rgb(170,171,176)" stroke="none" d="M 5229,4597 L 5275,4629 2701,6395 2655,6363 5229,4597 Z"/>
         <path fill="rgb(169,170,175)" stroke="none" d="M 5258,4617 L 5305,4649 2731,6415 2684,6383 5258,4617 Z"/>
         <path fill="rgb(169,170,175)" stroke="none" d="M 5287,4637 L 5334,4669 2760,6435 2714,6404 5287,4637 Z"/>
         <path fill="rgb(168,169,174)" stroke="none" d="M 5317,4658 L 5363,4689 2789,6456 2743,6424 5317,4658 Z"/>
         <path fill="rgb(168,169,174)" stroke="none" d="M 5346,4678 L 5393,4710 2819,6476 2772,6444 5346,4678 Z"/>
         <path fill="rgb(167,168,173)" stroke="none" d="M 5375,4698 L 5422,4730 2848,6496 2802,6464 5375,4698 Z"/>
         <path fill="rgb(166,167,172)" stroke="none" d="M 5405,4718 L 5451,4750 2877,6516 2831,6484 5405,4718 Z"/>
         <path fill="rgb(166,167,172)" stroke="none" d="M 5434,4738 L 5481,4770 2907,6536 2860,6504 5434,4738 Z"/>
         <path fill="rgb(165,166,171)" stroke="none" d="M 5464,4758 L 5510,4790 2936,6556 2890,6524 5464,4758 Z"/>
         <path fill="rgb(165,165,171)" stroke="none" d="M 5493,4778 L 5539,4810 2965,6576 2919,6545 5493,4778 Z"/>
         <path fill="rgb(164,165,170)" stroke="none" d="M 5522,4799 L 5569,4830 2995,6597 2948,6565 5522,4799 Z"/>
         <path fill="rgb(163,164,170)" stroke="none" d="M 5552,4819 L 5598,4851 3024,6617 2978,6585 5552,4819 Z"/>
         <path fill="rgb(163,164,169)" stroke="none" d="M 5581,4839 L 5627,4871 3053,6637 3007,6605 5581,4839 Z"/>
         <path fill="rgb(162,163,168)" stroke="none" d="M 5610,4859 L 5657,4891 3083,6657 3036,6625 5610,4859 Z"/>
         <path fill="rgb(162,162,168)" stroke="none" d="M 5640,4879 L 5686,4911 3112,6677 3066,6645 5640,4879 Z"/>
         <path fill="rgb(161,162,167)" stroke="none" d="M 5669,4899 L 5715,4931 3142,6697 3095,6665 5669,4899 Z"/>
         <path fill="rgb(161,161,167)" stroke="none" d="M 5698,4919 L 5745,4951 3171,6717 3124,6686 5698,4919 Z"/>
         <path fill="rgb(160,161,166)" stroke="none" d="M 5728,4940 L 5774,4971 3200,6738 3154,6706 5728,4940 Z"/>
         <path fill="rgb(159,160,166)" stroke="none" d="M 5757,4960 L 5803,4992 3230,6758 3183,6726 5757,4960 Z"/>
         <path fill="rgb(159,159,165)" stroke="none" d="M 5786,4980 L 5833,5012 3259,6778 3212,6746 5786,4980 Z"/>
         <path fill="rgb(158,159,165)" stroke="none" d="M 5816,5000 L 5862,5032 3288,6798 3242,6766 5816,5000 Z"/>
         <path fill="rgb(158,158,164)" stroke="none" d="M 5845,5020 L 5892,5052 3318,6818 3271,6786 5845,5020 Z"/>
         <path fill="rgb(157,158,163)" stroke="none" d="M 5874,5040 L 5921,5072 3347,6838 3301,6806 5874,5040 Z"/>
         <path fill="rgb(157,157,163)" stroke="none" d="M 5904,5060 L 5950,5092 3376,6858 3330,6827 5904,5060 Z"/>
         <path fill="rgb(156,156,162)" stroke="none" d="M 5933,5081 L 5980,5112 3406,6879 3359,6847 5933,5081 Z"/>
         <path fill="rgb(155,156,162)" stroke="none" d="M 5962,5101 L 6009,5133 3435,6899 3389,6867 5962,5101 Z"/>
         <path fill="rgb(155,155,161)" stroke="none" d="M 5992,5121 L 6038,5153 3464,6919 3418,6887 5992,5121 Z"/>
         <path fill="rgb(154,155,161)" stroke="none" d="M 6021,5141 L 6068,5173 3494,6939 3447,6907 6021,5141 Z"/>
         <path fill="rgb(154,154,160)" stroke="none" d="M 6051,5161 L 6097,5193 3523,6959 3477,6927 6051,5161 Z"/>
         <path fill="rgb(153,153,160)" stroke="none" d="M 6080,5181 L 6126,5213 3552,6979 3506,6947 6080,5181 Z"/>
         <path fill="rgb(153,153,159)" stroke="none" d="M 6109,5201 L 6156,5233 3582,6999 3535,6967 6109,5201 Z"/>
         <path fill="rgb(152,152,158)" stroke="none" d="M 6139,5221 L 6185,5253 3611,7020 3565,6988 6139,5221 Z"/>
         <path fill="rgb(151,152,158)" stroke="none" d="M 6168,5242 L 6214,5274 3640,7040 3594,7008 6168,5242 Z"/>
         <path fill="rgb(151,151,157)" stroke="none" d="M 6197,5262 L 6244,5294 3670,7060 3623,7028 6197,5262 Z"/>
         <path fill="rgb(150,150,157)" stroke="none" d="M 6227,5282 L 6273,5314 3699,7080 3653,7048 6227,5282 Z"/>
         <path fill="rgb(150,150,156)" stroke="none" d="M 6256,5302 L 6302,5334 3729,7100 3682,7068 6256,5302 Z"/>
         <path fill="rgb(149,149,156)" stroke="none" d="M 6285,5322 L 6332,5354 3758,7120 3711,7088 6285,5322 Z"/>
         <path fill="rgb(149,149,155)" stroke="none" d="M 6315,5342 L 6361,5374 3787,7140 3741,7108 6315,5342 Z"/>
         <path fill="rgb(148,148,155)" stroke="none" d="M 6344,5362 L 6390,5394 3817,7160 3770,7129 6344,5362 Z"/>
         <path fill="rgb(147,147,154)" stroke="none" d="M 6373,5383 L 6420,5414 3846,7181 3799,7149 6373,5383 Z"/>
         <path fill="rgb(147,147,153)" stroke="none" d="M 6403,5403 L 6449,5435 3875,7201 3829,7169 6403,5403 Z"/>
         <path fill="rgb(146,146,153)" stroke="none" d="M 6432,5423 L 6479,5455 3905,7221 3858,7189 6432,5423 Z"/>
         <path fill="rgb(146,146,152)" stroke="none" d="M 6461,5443 L 6508,5475 3934,7241 3888,7209 6461,5443 Z"/>
         <path fill="rgb(145,145,152)" stroke="none" d="M 6491,5463 L 6537,5495 3963,7261 3917,7229 6491,5463 Z"/>
         <path fill="rgb(145,144,151)" stroke="none" d="M 6520,5483 L 6567,5515 3993,7281 3946,7249 6520,5483 Z"/>
         <path fill="rgb(144,144,151)" stroke="none" d="M 6549,5503 L 6596,5535 4022,7301 3976,7270 6549,5503 Z"/>
         <path fill="rgb(143,143,150)" stroke="none" d="M 6579,5524 L 6625,5555 4051,7322 4005,7290 6579,5524 Z"/>
         <path fill="rgb(143,142,150)" stroke="none" d="M 6608,5544 L 6655,5576 4081,7342 4034,7310 6608,5544 Z"/>
         <path fill="rgb(142,142,149)" stroke="none" d="M 6637,5564 L 6684,5596 4110,7362 4064,7330 6637,5564 Z"/>
         <path fill="rgb(142,141,148)" stroke="none" d="M 6667,5584 L 6713,5616 4139,7382 4093,7350 6667,5584 Z"/>
         <path fill="rgb(141,141,148)" stroke="none" d="M 6696,5604 L 6743,5636 4169,7402 4122,7370 6696,5604 Z"/>
         <path fill="rgb(141,140,147)" stroke="none" d="M 6726,5624 L 6772,5656 4198,7422 4152,7390 6726,5624 Z"/>
         <path fill="rgb(140,139,147)" stroke="none" d="M 6755,5644 L 6801,5676 4227,7442 4181,7411 6755,5644 Z"/>
         <path fill="rgb(139,139,146)" stroke="none" d="M 6784,5665 L 6831,5696 4257,7463 4210,7431 6784,5665 Z"/>
         <path fill="rgb(139,138,146)" stroke="none" d="M 6814,5685 L 6860,5717 4286,7483 4240,7451 6814,5685 Z"/>
         <path fill="rgb(138,138,145)" stroke="none" d="M 6843,5705 L 6889,5737 4316,7503 4269,7471 6843,5705 Z"/>
         <path fill="rgb(138,137,145)" stroke="none" d="M 6872,5725 L 6919,5757 4345,7523 4298,7491 6872,5725 Z"/>
         <path fill="rgb(137,136,144)" stroke="none" d="M 6902,5745 L 6948,5777 4374,7543 4328,7511 6902,5745 Z"/>
         <path fill="rgb(137,136,143)" stroke="none" d="M 6931,5765 L 6977,5797 4404,7563 4357,7531 6931,5765 Z"/>
         <path fill="rgb(136,135,143)" stroke="none" d="M 6960,5785 L 7007,5817 4433,7583 4386,7551 6960,5785 Z"/>
         <path fill="rgb(135,135,142)" stroke="none" d="M 6990,5806 L 7036,5837 4462,7604 4416,7572 6990,5806 Z"/>
         <path fill="rgb(135,134,142)" stroke="none" d="M 7019,5826 L 7065,5858 4492,7624 4445,7592 7019,5826 Z"/>
         <path fill="rgb(134,133,141)" stroke="none" d="M 7048,5846 L 7095,5878 4521,7644 4474,7612 7048,5846 Z"/>
         <path fill="rgb(134,133,141)" stroke="none" d="M 7078,5866 L 7124,5898 4550,7664 4504,7632 7078,5866 Z"/>
         <path fill="rgb(133,132,140)" stroke="none" d="M 7107,5886 L 7154,5918 4580,7684 4533,7652 7107,5886 Z"/>
         <path fill="rgb(133,132,140)" stroke="none" d="M 7136,5906 L 7183,5938 4609,7704 4563,7672 7136,5906 Z"/>
        </g>
        <defs>
         <clipPath id="clip_path_3" clipPathUnits="userSpaceOnUse">
          <path d="M 5019,6252 C 5019,6252 5129,6286 5193,6319 5216,6331 5254,6354 5282,6384 5309,6413 5322,6443 5322,6443 L 5756,7193 5055,7193 4727,6562 C 4727,6562 4659,6444 4618,6410 4584,6381 4569,6371 4535,6371 4511,6371 4368,6371 4368,6371 L 4368,7193 3747,7193 3747,5093 4994,5093 C 4994,5093 5562,5104 5562,5657 5562,6211 5019,6252 5019,6252 L 5019,6252 Z M 4749,5549 L 4374,5549 4373,5906 4749,5906 C 4749,5906 4923,5905 4923,5724 4923,5539 4749,5549 4749,5549 L 4749,5549 Z"/>
         </clipPath>
        </defs>
        <g clip-path="url(#clip_path_3)">
         <path fill="rgb(39,109,195)" stroke="none" d="M 4499,4307 L 4557,4368 2801,6204 2742,6143 4499,4307 Z"/>
         <path fill="rgb(39,109,194)" stroke="none" d="M 4556,4367 L 4615,4428 2859,6264 2800,6203 4556,4367 Z"/>
         <path fill="rgb(38,108,194)" stroke="none" d="M 4613,4427 L 4672,4488 2916,6324 2857,6263 4613,4427 Z"/>
         <path fill="rgb(38,108,193)" stroke="none" d="M 4671,4487 L 4729,4548 2973,6384 2915,6323 4671,4487 Z"/>
         <path fill="rgb(37,107,192)" stroke="none" d="M 4728,4547 L 4787,4608 3031,6444 2972,6383 4728,4547 Z"/>
         <path fill="rgb(37,107,191)" stroke="none" d="M 4786,4607 L 4844,4668 3088,6504 3029,6443 4786,4607 Z"/>
         <path fill="rgb(36,106,191)" stroke="none" d="M 4843,4667 L 4902,4728 3145,6564 3087,6503 4843,4667 Z"/>
         <path fill="rgb(36,106,190)" stroke="none" d="M 4900,4727 L 4959,4788 3203,6624 3144,6563 4900,4727 Z"/>
         <path fill="rgb(35,105,189)" stroke="none" d="M 4958,4787 L 5016,4848 3260,6684 3202,6623 4958,4787 Z"/>
         <path fill="rgb(35,105,189)" stroke="none" d="M 5015,4847 L 5074,4908 3318,6744 3259,6683 5015,4847 Z"/>
         <path fill="rgb(34,104,188)" stroke="none" d="M 5072,4907 L 5131,4968 3375,6804 3316,6743 5072,4907 Z"/>
         <path fill="rgb(34,104,187)" stroke="none" d="M 5130,4967 L 5189,5028 3432,6864 3374,6803 5130,4967 Z"/>
         <path fill="rgb(33,103,186)" stroke="none" d="M 5187,5027 L 5246,5088 3490,6924 3431,6863 5187,5027 Z"/>
         <path fill="rgb(33,103,186)" stroke="none" d="M 5245,5087 L 5303,5148 3547,6984 3488,6923 5245,5087 Z"/>
         <path fill="rgb(32,102,185)" stroke="none" d="M 5302,5147 L 5361,5208 3605,7044 3546,6983 5302,5147 Z"/>
         <path fill="rgb(32,102,184)" stroke="none" d="M 5359,5207 L 5418,5268 3662,7104 3603,7043 5359,5207 Z"/>
         <path fill="rgb(31,101,184)" stroke="none" d="M 5417,5267 L 5476,5328 3719,7164 3661,7103 5417,5267 Z"/>
         <path fill="rgb(31,101,183)" stroke="none" d="M 5474,5327 L 5533,5388 3777,7224 3718,7163 5474,5327 Z"/>
         <path fill="rgb(30,100,182)" stroke="none" d="M 5532,5387 L 5590,5448 3834,7284 3775,7223 5532,5387 Z"/>
         <path fill="rgb(30,100,181)" stroke="none" d="M 5589,5447 L 5648,5508 3892,7344 3833,7283 5589,5447 Z"/>
         <path fill="rgb(29,99,181)" stroke="none" d="M 5646,5507 L 5705,5568 3949,7404 3890,7343 5646,5507 Z"/>
         <path fill="rgb(29,99,180)" stroke="none" d="M 5704,5567 L 5762,5628 4006,7464 3948,7403 5704,5567 Z"/>
         <path fill="rgb(28,98,179)" stroke="none" d="M 5761,5627 L 5820,5688 4064,7524 4005,7463 5761,5627 Z"/>
         <path fill="rgb(28,98,179)" stroke="none" d="M 5819,5687 L 5877,5748 4121,7584 4062,7523 5819,5687 Z"/>
         <path fill="rgb(27,97,178)" stroke="none" d="M 5876,5747 L 5935,5808 4178,7644 4120,7583 5876,5747 Z"/>
         <path fill="rgb(27,97,177)" stroke="none" d="M 5933,5807 L 5992,5868 4236,7704 4177,7643 5933,5807 Z"/>
         <path fill="rgb(26,96,176)" stroke="none" d="M 5991,5867 L 6049,5928 4293,7764 4235,7703 5991,5867 Z"/>
         <path fill="rgb(26,96,176)" stroke="none" d="M 6048,5927 L 6107,5988 4351,7824 4292,7763 6048,5927 Z"/>
         <path fill="rgb(25,95,175)" stroke="none" d="M 6105,5987 L 6164,6048 4408,7884 4349,7823 6105,5987 Z"/>
         <path fill="rgb(25,95,174)" stroke="none" d="M 6163,6047 L 6222,6108 4465,7944 4407,7883 6163,6047 Z"/>
         <path fill="rgb(24,94,174)" stroke="none" d="M 6220,6107 L 6279,6168 4523,8004 4464,7943 6220,6107 Z"/>
         <path fill="rgb(24,94,173)" stroke="none" d="M 6278,6167 L 6336,6228 4580,8064 4522,8003 6278,6167 Z"/>
         <path fill="rgb(23,93,172)" stroke="none" d="M 6335,6227 L 6394,6288 4638,8124 4579,8063 6335,6227 Z"/>
         <path fill="rgb(23,93,171)" stroke="none" d="M 6392,6287 L 6451,6348 4695,8184 4636,8123 6392,6287 Z"/>
         <path fill="rgb(22,92,171)" stroke="none" d="M 6450,6347 L 6509,6408 4752,8244 4694,8183 6450,6347 Z"/>
        </g>
       </g>
      </g>
      <g class="com.sun.star.drawing.CustomShape">
       <g id="id5">
        <rect class="BoundingBox" stroke="none" fill="none" x="6199" y="5199" width="2105" height="2103"/>
        <path fill="rgb(255,64,0)" stroke="none" d="M 7251,7300 C 7225,7089 7147,6828 6958,6662 6643,6389 6460,6420 6255,6056 6142,5814 6180,5389 6602,5230 7038,5103 7211,5416 7251,5480 7292,5416 7463,5103 7900,5230 8323,5389 8360,5814 8246,6056 8040,6420 7857,6389 7542,6662 7353,6828 7276,7089 7251,7300 L 7251,7300 Z"/>
        <path fill="none" stroke="rgb(255,0,0)" d="M 7251,7300 C 7225,7089 7147,6828 6958,6662 6643,6389 6460,6420 6255,6056 6142,5814 6180,5389 6602,5230 7038,5103 7211,5416 7251,5480 7292,5416 7463,5103 7900,5230 8323,5389 8360,5814 8246,6056 8040,6420 7857,6389 7542,6662 7353,6828 7276,7089 7251,7300 Z"/>
       </g>
      </g>
     </g>
    </g>
   </g>
  </g>
 </g>
</svg>